<?xml version="1.0" encoding="utf-8"?>
<!-- Generator: Adobe Illustrator 26.0.0, SVG Export Plug-In . SVG Version: 6.00 Build 0)  -->
<svg version="1.1" id="레이어_1" xmlns="http://www.w3.org/2000/svg" xmlns:xlink="http://www.w3.org/1999/xlink" x="0px"
	 y="0px" viewBox="0 0 500 500" style="enable-background:new 0 0 500 500;" xml:space="preserve">
<style type="text/css">
	.st0{fill:#D6D7D7;}
	.st1{fill:#EF7F28;}
</style>
<path class="st0" d="M81.7,265.2c-2.1,0-4.2-0.6-6.1-1.7c-4.4-2.7-6.5-8-5.2-13l14.4-53.2c-33-14.1-55.1-47-55.1-83.5
	c0-50.1,40.8-90.9,90.9-90.9h205.3c50.1,0,90.9,40.8,90.9,90.9s-40.8,90.9-90.9,90.9H153.2l-63.7,57.5
	C87.4,264.2,84.6,265.2,81.7,265.2z M120.6,46.3c-37.3,0-67.6,30.3-67.6,67.6c0,30,20.2,56.7,49.1,64.9c6.1,1.7,9.7,8.1,8,14.2
	l-6.9,25.4l37.6-34c2.1-1.9,4.9-3,7.8-3h177.2c37.3,0,67.6-30.3,67.6-67.6s-30.3-67.6-67.6-67.6H120.6z"/>
<path class="st0" d="M470.8,324.8c0-50.1-40.8-90.9-90.9-90.9H211.4c-50.1,0-90.9,40.8-90.9,90.9s40.8,90.9,90.9,90.9h136l63.7,57.5
	c2.2,2,5,3,7.8,3c0,0,0,0,0.1,0c6.3-0.1,11.7-5.2,11.7-11.6c0-1.6-0.3-3.1-0.9-4.5l-14-51.7C448.6,394.2,470.8,361.3,470.8,324.8z"
	/>
<g>
	<ellipse class="st1" cx="154.3" cy="116" rx="16.4" ry="16.4"/>
	<ellipse class="st1" cx="225.9" cy="116" rx="16.4" ry="16.4"/>
	<path class="st1" d="M313.8,116c0-9-7.3-16.4-16.4-16.4c-9,0-16.4,7.3-16.4,16.4s7.3,16.4,16.4,16.4
		C306.5,132.3,313.8,125,313.8,116z"/>
</g>
<path class="st1" d="M339.6,310.5c-0.9-2.7-3.4-4.5-6.2-4.5h-24.1l-7.4-22.9c-0.9-2.7-3.4-4.5-6.2-4.5c-2.8,0-5.3,1.8-6.2,4.5
	L282,306h-24.1c-2.8,0-5.3,1.8-6.2,4.5c-0.9,2.7,0.1,5.6,2.4,7.3l19.5,14.2l-7.4,22.9c-0.9,2.7,0.1,5.6,2.4,7.3
	c2.3,1.7,5.4,1.7,7.7,0l19.5-14.2l19.5,14.2c1.1,0.8,2.5,1.2,3.8,1.2c1.3,0,2.7-0.4,3.8-1.2c2.3-1.7,3.3-4.6,2.4-7.3l-7.4-22.9
	l19.5-14.2C339.6,316.1,340.5,313.2,339.6,310.5z"/>
</svg>
