<?xml version="1.0" encoding="utf-8"?>
<!-- Generator: Adobe Illustrator 26.0.0, SVG Export Plug-In . SVG Version: 6.00 Build 0)  -->
<svg version="1.1" id="레이어_1" xmlns="http://www.w3.org/2000/svg" xmlns:xlink="http://www.w3.org/1999/xlink" x="0px"
	 y="0px" viewBox="0 0 500 500" style="enable-background:new 0 0 500 500;" xml:space="preserve">
<style type="text/css">
	.st0{fill:#D6D7D7;}
	.st1{fill:#EF7F28;}
</style>
<g>
	<g>
		<path class="st0" d="M412,484.6H279.2c-147.7,0-172-86.4-173-90.1c-0.2-0.9-0.4-1.9-0.4-2.8V279.1c0-0.8,0.1-1.7,0.3-2.5
			c10-42.8,43.1-79.3,90.8-100.2c22.1-9.7,33.7-31.3,44-50.3c7.9-14.6,15.3-28.4,26.9-35.9c5.7-3.7,11.8-5.5,18.1-5.5
			c10.8,0,21.1,5.4,29,15.2c12.1,15.1,16.4,37.9,11.3,61c-3.6,16.6-9,28.7-14.6,37.5h105.7c26.8,0,48.7,21.8,48.7,48.7
			c0,9-2.5,17.8-7.1,25.3c11.2,9.1,17.9,22.7,17.9,37.7c0,14.9-6.7,28.6-17.9,37.7c4.6,7.6,7.1,16.3,7.1,25.3
			c0,13.3-5.3,25.6-14.5,34.7c5.9,8.2,9.1,18,9.1,28.4C460.7,462.8,438.8,484.6,412,484.6z M128.1,390.1
			c3.3,9.7,29.1,72.3,151.2,72.3H412c14.6,0,26.4-11.9,26.4-26.4c0-8.3-3.8-15.9-10.4-21c-3-2.3-4.6-6-4.3-9.8
			c0.3-3.8,2.5-7.1,5.9-8.9c8.7-4.6,14.2-13.6,14.2-23.4c0-7.6-3.3-14.8-9-19.9c-2.9-2.5-4.3-6.4-3.6-10.2c0.6-3.8,3.2-7,6.8-8.4
			c10.1-4.1,16.6-13.7,16.6-24.5c0-10.8-6.5-20.5-16.6-24.5c-3.6-1.4-6.2-4.6-6.8-8.4c-0.7-3.8,0.7-7.7,3.6-10.2
			c5.7-5,9-12.3,9-19.9c0-14.6-11.9-26.4-26.4-26.4H284.6c-5.4,0-10-3.8-10.9-9.1c-1-5.3,2-10.5,7-12.4c0,0,0,0,0,0
			c0,0,16.2-7.7,23.9-42.9c4.3-19.5-0.8-34.6-6.9-42.3c-3.5-4.4-7.8-6.9-11.7-6.9c-2,0-4,0.7-6.1,2c-6.8,4.4-12.9,15.8-19.4,27.8
			c-11.4,21.1-25.5,47.4-54.6,60.2c-40.8,17.9-69.1,48.3-77.8,83.7V390.1z"/>
		<g>
			<rect x="34.9" y="210.3" class="st1" width="85.9" height="235.8"/>
			<path class="st1" d="M120.9,457.2H34.9c-6.1,0-11.1-5-11.1-11.1V210.3c0-6.1,5-11.1,11.1-11.1h85.9c6.1,0,11.1,5,11.1,11.1v235.8
				C132,452.3,127,457.2,120.9,457.2z M46.1,435h63.7V221.4H46.1V435z"/>
		</g>
	</g>
	<g>
		<g>
			<g>
				<path class="st1" d="M207.8,140.9h-26c-6.1,0-11.1-5-11.1-11.1c0-6.1,5-11.1,11.1-11.1h26c6.1,0,11.1,5,11.1,11.1
					C218.9,136,214,140.9,207.8,140.9z"/>
				<path class="st1" d="M390.2,140.9h-26c-6.1,0-11.1-5-11.1-11.1c0-6.1,5-11.1,11.1-11.1h26c6.1,0,11.1,5,11.1,11.1
					C401.3,136,396.3,140.9,390.2,140.9z"/>
			</g>
			<g>
				<path class="st1" d="M286,62.8c-6.1,0-11.1-5-11.1-11.1v-26c0-6.1,5-11.1,11.1-11.1c6.1,0,11.1,5,11.1,11.1v26
					C297.1,57.8,292.1,62.8,286,62.8z"/>
			</g>
		</g>
		<g>
			<g>
				<path class="st1" d="M230.7,85.7c-2.8,0-5.7-1.1-7.9-3.3L204.4,64c-4.3-4.3-4.3-11.4,0-15.7c4.3-4.3,11.4-4.3,15.7,0l18.4,18.4
					c4.3,4.3,4.3,11.4,0,15.7C236.4,84.6,233.6,85.7,230.7,85.7z"/>
			</g>
			<g>
				<path class="st1" d="M341.2,85.7c-2.8,0-5.7-1.1-7.9-3.3c-4.3-4.3-4.3-11.4,0-15.7l18.4-18.4c4.3-4.3,11.4-4.3,15.7,0
					c4.3,4.3,4.3,11.4,0,15.7l-18.4,18.4C346.9,84.6,344.1,85.7,341.2,85.7z"/>
			</g>
		</g>
	</g>
</g>
</svg>
