<?xml version="1.0" encoding="utf-8"?>
<!-- Generator: Adobe Illustrator 26.0.0, SVG Export Plug-In . SVG Version: 6.00 Build 0)  -->
<svg version="1.1" id="레이어_1" xmlns="http://www.w3.org/2000/svg" xmlns:xlink="http://www.w3.org/1999/xlink" x="0px"
	 y="0px" viewBox="0 0 500 500" style="enable-background:new 0 0 500 500;" xml:space="preserve">
<style type="text/css">
	.st0{fill:#E58027;}
</style>
<path class="st0" d="M18,252.6C16.2,148.6,93.7,43.2,217.2,25.1c125.1-18.3,243.6,70,262.2,193.8c9.3,62.1-11.4,115.9-45,166.2
	c-15.8,23.6-34.6,44.7-58.4,60.6c-45.1,30.1-94.5,11.3-105.6-40c-4.3-19.6,1.3-38.1,11.4-54.3c14.5-23.1,31.5-44.6,46.8-67.3
	c8.2-12.1,16.5-24.4,22-37.8c6.4-15.7,0.7-30.2-12.4-40.2c-12.1-9.3-23.4-10.1-38.3,0.6c-11.1,8-20.8,18.2-30.2,28.4
	c-11.1,12.1-19.7,11.9-31.7,0.3c-11.3-11-23.6-21.6-37-29.8c-12.4-7.6-26.2-5.6-37.6,4.4c-10.9,9.5-10.4,22.5-5.6,33.8
	c6.1,14.5,12.9,29.7,23.2,41.3c15.8,17.8,34.7,33.1,52.6,49c10.8,9.6,13.6,18.7,6.8,26.9c-6.2,7.4-17.7,8-27-0.6
	c-23.6-22.1-47.7-43.9-69.1-68c-13.6-15.4-20.1-35.4-22.4-56.6c-5.4-50.1,47.5-80.1,89.4-61.9c12.2,5.3,23.4,13.2,34.2,21.1
	c6.4,4.8,10.3,4.9,16-0.7c14.3-14.1,30.7-25.8,51.3-27.7c46.1-4.3,83,40.2,71.6,85.3c-5.4,21.4-18.1,38.4-31.2,55.7
	c-16,21-31.3,42.8-44.4,65.7c-5,8.7-5.9,22.3-3.2,32.3c5.2,19.7,26.2,28.4,42.8,17.1c17.5-11.9,34.2-26.1,47.7-42.4
	c28.1-33.9,47.7-72.9,51.3-117.3c3.7-46.1-9.8-88.4-37.5-125.3c-35.1-46.7-81.8-73.4-140.6-79.9C171.5,46.6,79.3,112.8,57,206.1
	C30.5,316.7,102,425.7,214.4,446.4c9,1.7,17.4,4.7,18.3,14.3c0.5,5.2-2.8,12.8-7,15.8c-4.4,3.1-12.1,3.4-17.9,2.4
	c-35.4-6.3-67.9-20-96.4-42C51,390.4,19.5,329,18,252.6z"/>
</svg>
